/* XPM */
static char *tuxnes[] = {
"64 64 10 1",
"` c #000000",
"a c #800000",
"b c #838583",
"c c #C0C0C0",
"d c #000100",
"e c #FF0000",
"f c #808080",
"g c #FFFFFF",
"h c #FEFFFE",
"i c #FFFF00",
"cccccccccccccccccccccccccccccccccccccccccccccccccccccccccccccccc",
"cffffffffffffffffffffffffffffffffffffffffffffffffffffffffffffffc",
"cf````````````````````````````````````````````````````````````fc",
"cf````````````````````````````````````````````````````````````fc",
"cf````````````````````````````````````````````````````````````fc",
"cf````````````````````````````````````````````````````````````fc",
"cf````````````````````````````````````````````````````````````fc",
"cf``````````````````ffggggggggff``````````````````````````````fc",
"cf````````````````fggggggggggggggf````````````````````````````fc",
"cf````````````````gggddddddddddhhg````````````````````````````fc",
"cf```````````````fghgdbbbddbbbdhhgf```````````````````````````fc",
"cf```````````````fgggbhhhddhhhbhhgf```````````````````````````fc",
"cf```````````````fggghhhhddhhhhhhgf````fghhhf```fhhhhf````````fc",
"cf````````````````ggggghhddhhhhhhh````fhhhhhhhfhhhhhhhf```````fc",
"cf````````````````fgggghhddhhhhhhhghhhhhhhhhhhghhhhhhhf```````fc",
"cf``````````````````fgghhddhhbddbhghbddbhbddbhghbddbhhg```````fc",
"cf```````````````````fghhddhhhddhhghhddhhhddhhghhddhhhg```````fc",
"cfff``````````````````hhhddhhhddhhghhddhhhddhhghhddhhgg```````fc",
"gggggggf``````````````hhhddhhhddhhghhddhhhddhhhhhddhhgf```````fc",
"gggggggggg````````````hhhddhhhddhhghhddhhhbdbhhhbdbhggf```````fc",
"gggggggggggf`````````fhhhddhhhddhhghhddhhhhddbhbddhhgg````````fc",
"ggggggggggggf````````fhhhddhhhddhhghhddhhhhhddbddhhhgf````````fc",
"ggggggggggggg````````hhhhddhhhddhhghhddhhhhhhdddhhhhg`````````fc",
"ggggggggggggggf``````hghhddhhhddhhghhddhhhhhddbddhhhg`````````fc",
"ggggggggggggggg``````hghhddhhhddhhghhddhhhhddbhbddhhgf````````fc",
"gggggggggggggggf````fhghhddhhhddhhghhddhhhbdbhhhbdbhgg````````fc",
"gggggggggggggggg````fhghhddhhhddhhghhddhhhddhhhhhddhggf```````fc",
"ggggggggggggggggf```ggghhddhhhddhhghhddhhhddhhghhddhhgf```````fc",
"ggggggggggggggggg```ggghhddhhhddhhghhddhhhddhhghhddhhgg```````fc",
"gggggggggggggggggf``ggghhddhhhddhhhhhddhhhddhhghhddhhgg```````fc",
"gggggggggggggggggg``fggghddhghbdbhhhbdbhhhddhhghhddhhhg```````fc",
"gggggggggggggggggg```hhghddhhhhddbbbddhghhddhgghhddhhhg```````fc",
"ggggggggggggggggggf``fhhbddbghghbdddbhhhfbddbhghbddbhgf```````fc",
"ggggggggggggggggggf```fggggggfggggggggfgggggggfgggggggf```````fc",
"ggggggggggggggggggg````fggggf```fgggf``fggggf```fggggf````````fc",
"ggggggggggggggggggg```````````````````````````````````````````fc",
"ggggggggggggggggggg``````eeee```````ee``eeeeeeeeeee```aeeeeea`fc",
"ggggggggggggggggggg``````aeiee``````ae``aeieeaaaaae``eeeaaaaeefc",
"``fgggggggggggggggg``````aeeeee`````ae``aeeea```````aeee````aefc",
"````fgggggggggggggg``````aeeeiee````ae``aeeea```````aeeee`````fc",
"`````fggggggggggggg``````aeeeeeee```ae``aeiea```````aeeiee````fc",
"```g``ggggggggggggg``````aeeeeeiee``ae``aeeeeeeeee``aeeeeee```fc",
"``fgf`fgggggggggggc``````aeaeeeeeee`ae``aeeeeaaaae```aeeeiee``fc",
"``ggg``gggggggggggc``````ae`aeeeeieeae``aeiea`````````aeeeeee`fc",
"``ggg``gggggggggggf``````ae``aeeeeeeee``aeeea``````````aeeeieafc",
"``fgf``gggggggggggf``````ae```aeeeeiee``aeeea```````````aeeeeefc",
"```g```ggggggggggc```````ae````aeeeeee``aeiea````````````aeeeefc",
"```````ggggggggggc```````ae`````aeeeee``aeeea```````ee````eeeefc",
"```````gggggggggcf```````ae``````aeeee``aeeeeeeeeee`aeeeeeeea`fc",
"``````fggggggggccf```````ae```````aaae``aaaaaaaaaae``aaaaaaa``fc",
"``````fgggggggccc`````````````````````````````````````````````fc",
"``````gggggggccc``````````````````````````````````````````````fc",
"`````fgggggccccf``````````````````````````````````````````````fc",
"`````cccccccccf```````````````````````````````````````````````fc",
"```fccccccccc`````````````````````````````````````````````````fc",
"cccccccccccf``````````````````````````````````````````````````fc",
"ccccccccff````````````````````````````````````````````````````fc",
"cfff``````````````````````````````````````````````````````````fc",
"cf````````````````````````````````````````````````````````````fc",
"cf````````````````````````````````````````````````````````````fc",
"cf````````````````````````````````````````````````````````````fc",
"cf````````````````````````````````````````````````````````````fc",
"cffffffffffffffffffffffffffffffffffffffffffffffffffffffffffffffc",
"cccccccccccccccccccccccccccccccccccccccccccccccccccccccccccccccc"
};
