/* XPM */
static char *tuxnes2[] = {
"48 48 8 1",
". c #000000",
"# c #800000",
"a c #808080",
"b c #c0c0c0",
"c c #ff0000",
"d s None c None",
"e c #ffff00",
"f c #ffffff",
"dddddddddddddddddddddddddddddddddddddddddddddddd",
"dddddddddddddddddddddddddddddddddddddddddddddddd",
"dddddddddddddddddddddddddddddddddddddddddddddddd",
"dddddddddddddddddddddddddddddddddddddddddddddddd",
"dddddddddd...ddddddddddddddddddddddddddddddddddd",
"ddddddddd.f.f.dddddddddddddddddddddddddddddddddd",
"ddddddddd.b.b.dddddddddddddddddddddddddddddddddd",
"ddddddddd.ece.dddddddddddddddddddddddddddddddddd",
"ddddddddd..e..dddddddddddddddddddddddddddddddddd",
"dddddddd...f...ddddddddddddddddddddddddddddddddd",
"dddddddd..bff..ddddddddddddddddddddddddddddddddd",
"ddddddd...bff...dddddddddddddddddddddddddddddddd",
"dddddddec.bff.cedddddddddddddddddddddddddddddddd",
"dddddddce.bff.ecdddddddddddddddddddddddddddddddd",
"ddd.....ce.b.ec.....dddddddddddddddddddddddddddd",
"dd.abbbbba...abbbbba.ddddddddddddddddddddddddddd",
"d.bfffffffffffffffffb.dddddddddddddddddddddddddd",
"d.bfffffffffffffffffb.d.ddddddddddd.dddddddddddd",
"dd.bffaafafffafaaffb.d.a..dddddddd.a..dddddddddd",
"dd.bfaff.fffff.ffafb.d.baa.......d.baa...ddddddd",
"ddd.bff..fafff..ffaff..fafffaafff..fafffa.dddddd",
"ddd.bf.d.fafff..afaff..fafffaafbf..fafff.ddddddd",
"dddd.a.d.fafff..fafff..fafff.fafbf.faff.dddddddd",
"ddddd.dd.fafff..fafff..fafff..fafbfbbf.ddddddddd",
"dddddddd.fafff..fafff..fafff..bbaaaffb.ddddddddd",
"dddddddd.fafff..fafff..fafff.fafb.fafff.dddddddd",
"dddddddd.fafff..aafff..faffaafaff..faffa.ddddddd",
"dddddddd.fafff.d.aaffffafff.fafff..fafff.ddddddd",
"dddddddd.fafff.dd.aafffffa.afafff..fafffa.dddddd",
"dddddddd.baa..dddd........d...aab.d.......dddddd",
"ddddd....a......................a..............d",
"ddddd.....ccfc....cc..cccccccccc..cccccccc.aaa.d",
"ddddd.....#cffc...#c..##########..########...a.d",
"ddddd.....##ccfc..#c..#cffccccc..#cffcccc....a.d",
"ddddd.....#c#cffc.#c..#ccfc####..#ccffcfcc...a.d",
"ddddd.....#c.#ccfc#c..#cffc.......#ccccffc...a.d",
"ddddd.....#c..#cffcc..#ccfc........###cfcc...a.d",
"ddddd.....#c...#cccc..#ccccccccc.#ccccccc#...a.d",
"ddddd.....##....####..##########.########....a.d",
"ddddd..........................................d",
"dddddddddddddddddddddddddddddddddddddddddddddddd",
"dddddddddddddddddddddddddddddddddddddddddddddddd",
"dddddddddddddddddddddddddddddddddddddddddddddddd",
"dddddddddddddddddddddddddddddddddddddddddddddddd",
"dddddddddddddddddddddddddddddddddddddddddddddddd",
"dddddddddddddddddddddddddddddddddddddddddddddddd",
"dddddddddddddddddddddddddddddddddddddddddddddddd",
"dddddddddddddddddddddddddddddddddddddddddddddddd"
};
